<?xml version="1.0" encoding="iso-8859-1"?>
<!-- Uploaded to: SVG Repo, www.svgrepo.com, Generator: SVG Repo Mixer Tools -->
<!DOCTYPE svg PUBLIC "-//W3C//DTD SVG 1.1//EN" "http://www.w3.org/Graphics/SVG/1.1/DTD/svg11.dtd">
<svg fill="#000000" height="800px" width="800px" version="1.1" id="Capa_1" xmlns="http://www.w3.org/2000/svg" xmlns:xlink="http://www.w3.org/1999/xlink" 
	 viewBox="0 0 466.462 466.462" xml:space="preserve">
<g>
	<path d="M398.15,68.312C354.1,24.26,295.529,0,233.231,0c-62.299,0-120.868,24.26-164.92,68.312
		C24.261,112.363,0,170.933,0,233.231S24.261,354.099,68.312,398.15c44.052,44.051,102.621,68.312,164.92,68.312
		c62.298,0,120.868-24.26,164.919-68.312c44.052-44.052,68.312-102.621,68.312-164.919S442.202,112.363,398.15,68.312z
		 M387.544,387.543c-41.219,41.218-96.021,63.918-154.313,63.918s-113.095-22.7-154.313-63.918C37.7,346.325,15,291.522,15,233.231
		S37.7,120.137,78.919,78.918C120.137,37.7,174.939,15,233.231,15s113.094,22.7,154.313,63.918
		c41.218,41.218,63.918,96.021,63.918,154.313S428.762,346.325,387.544,387.543z"/>
	<path d="M263.688,233.231c0-16.793-13.662-30.456-30.456-30.456s-30.457,13.663-30.457,30.456
		c0,16.794,13.663,30.457,30.457,30.457S263.688,250.025,263.688,233.231z M217.774,233.231c0-8.522,6.934-15.456,15.457-15.456
		c8.522,0,15.456,6.934,15.456,15.456c0,8.523-6.934,15.457-15.456,15.457C224.708,248.688,217.774,241.754,217.774,233.231z"/>
	<path d="M233.231,38.991c-107.104,0-194.24,87.136-194.24,194.24s87.136,194.24,194.24,194.24s194.24-87.136,194.24-194.24
		S340.336,38.991,233.231,38.991z M53.991,233.231c0-8.449,0.601-16.76,1.738-24.901l104.796,28.08L58.559,273.523
		C55.572,260.568,53.991,247.081,53.991,233.231z M198.501,181.132c-3.833,2.563-7.359,5.545-10.534,8.867l-75.085-89.483
		c3.398-3.084,6.919-6.034,10.546-8.854L198.501,181.132z M135.684,82.933c22.304-14.525,48.021-24.224,75.667-27.604v117.781
		L135.684,82.933z M171.307,223.769L58.431,193.524c1.021-4.499,2.208-8.936,3.562-13.3l112.896,30.25
		C173.233,214.706,172.009,219.152,171.307,223.769z M172.38,248.058c1.102,4.523,2.694,8.853,4.72,12.934L67.292,300.96
		c-1.734-4.233-3.311-8.546-4.723-12.933L172.38,248.058z M191.91,280.25c3.444,3.03,7.214,5.696,11.264,7.92l-66.998,95.683
		c-3.86-2.496-7.616-5.14-11.266-7.917L191.91,280.25z M211.351,302.644v108.49c-22.241-2.719-43.233-9.53-62.205-19.651
		L211.351,302.644z M185.592,233.231c0-26.269,21.371-47.64,47.64-47.64s47.64,21.371,47.64,47.64s-21.371,47.64-47.64,47.64
		S185.592,259.5,185.592,233.231z M289.367,205.479l109.808-39.967c1.734,4.233,3.311,8.546,4.722,12.934l-109.812,39.968
		C292.984,213.891,291.393,209.56,289.367,205.479z M274.56,186.219c-3.443-3.031-7.213-5.697-11.262-7.922l66.998-95.683
		c3.86,2.496,7.616,5.141,11.265,7.918L274.56,186.219z M255.119,163.827V55.329c22.242,2.72,43.235,9.532,62.208,19.655
		L255.119,163.827z M267.961,285.331c3.833-2.563,7.36-5.545,10.534-8.867l75.085,89.483c-3.398,3.084-6.919,6.034-10.546,8.853
		L267.961,285.331z M330.779,383.53c-22.302,14.524-48.017,24.222-75.66,27.603V293.362L330.779,383.53z M295.155,242.7
		l112.875,30.244c-1.022,4.499-2.208,8.936-3.562,13.3l-112.896-30.251C293.228,251.763,294.452,247.318,295.155,242.7z
		 M305.943,230.061l101.963-37.111c2.986,12.952,4.565,26.436,4.565,40.281c0,8.452-0.602,16.764-1.739,24.908L305.943,230.061z
		 M392.899,151.833l-101.926,37.098l62.177-88.797C369.344,114.739,382.873,132.246,392.899,151.833z M240.119,54.136v116.842
		c-2.263-0.249-4.559-0.387-6.888-0.387c-2.326,0-4.62,0.138-6.881,0.386V54.136c2.284-0.087,4.576-0.145,6.881-0.145
		C235.539,53.991,237.833,54.049,240.119,54.136z M102.177,111.093l69.678,83.039L67.066,166.054
		C75.369,145.589,87.346,126.996,102.177,111.093z M73.569,314.639l101.928-37.099l-62.175,88.796
		C97.126,351.731,83.596,334.225,73.569,314.639z M226.351,412.326V295.485c2.261,0.248,4.555,0.386,6.881,0.386
		c2.328,0,4.625-0.138,6.888-0.387v116.842c-2.287,0.087-4.58,0.145-6.888,0.145C230.926,412.471,228.635,412.413,226.351,412.326z
		 M364.285,355.369l-69.671-83.031l104.78,28.076C391.091,320.877,379.115,339.468,364.285,355.369z"/>
</g>
</svg>